<svg width="500" height="400" viewBox="0 0 500 400" fill="none" xmlns="http://www.w3.org/2000/svg">
  <rect width="500" height="400" rx="20" fill="#F8FAFC"/>
  
  <!-- Central Component -->
  <rect x="200" y="150" width="100" height="100" rx="10" fill="#0EA5E9"/>
  <text x="250" y="200" font-family="Arial" font-size="14" fill="white" text-anchor="middle">KinOS Core</text>
  
  <!-- Top Component -->
  <rect x="200" y="50" width="100" height="60" rx="10" fill="#8B5CF6"/>
  <text x="250" y="80" font-family="Arial" font-size="12" fill="white" text-anchor="middle">kin Manager</text>
  
  <!-- Left Component -->
  <rect x="80" y="170" width="80" height="60" rx="10" fill="#8B5CF6"/>
  <text x="120" y="200" font-family="Arial" font-size="12" fill="white" text-anchor="middle">Context Builder</text>
  
  <!-- Right Component -->
  <rect x="340" y="170" width="80" height="60" rx="10" fill="#8B5CF6"/>
  <text x="380" y="200" font-family="Arial" font-size="12" fill="white" text-anchor="middle">Context Updater</text>
  
  <!-- Bottom Component -->
  <rect x="200" y="290" width="100" height="60" rx="10" fill="#8B5CF6"/>
  <text x="250" y="320" font-family="Arial" font-size="12" fill="white" text-anchor="middle">Response Generator</text>
  
  <!-- Connection Lines -->
  <line x1="250" y1="110" x2="250" y2="150" stroke="#0EA5E9" stroke-width="2"/>
  <line x1="160" y1="200" x2="200" y2="200" stroke="#0EA5E9" stroke-width="2"/>
  <line x1="300" y1="200" x2="340" y2="200" stroke="#0EA5E9" stroke-width="2"/>
  <line x1="250" y1="250" x2="250" y2="290" stroke="#0EA5E9" stroke-width="2"/>
  
  <!-- API Interface -->
  <rect x="50" y="50" width="100" height="60" rx="10" fill="#0EA5E9" fill-opacity="0.6"/>
  <text x="100" y="80" font-family="Arial" font-size="12" fill="white" text-anchor="middle">API Interface</text>
  <line x1="100" y1="110" x2="200" y2="170" stroke="#0EA5E9" stroke-width="2" stroke-dasharray="5,5"/>
  
  <!-- External Systems -->
  <rect x="350" y="50" width="100" height="60" rx="10" fill="#E2E8F0"/>
  <text x="400" y="80" font-family="Arial" font-size="12" fill="#1E293B" text-anchor="middle">External Systems</text>
  <line x1="350" y1="80" x2="150" y2="80" stroke="#0EA5E9" stroke-width="2" stroke-dasharray="5,5"/>
</svg>
